<mxfile host="app.diagrams.net" modified="2023-10-10T09:48:29.703Z" agent="Mozilla/5.0 (Windows NT 10.0; Win64; x64) AppleWebKit/537.36 (KHTML, like Gecko) Chrome/117.0.0.0 Safari/537.36 Edg/117.0.2045.60" etag="5bd2UXYlqQLEDlX4_Q5Q" version="22.0.4" type="device">
  <diagram name="Page-1" id="V2Eij1Sty3aypuZBULD6">
    <mxGraphModel dx="1664" dy="712" grid="1" gridSize="10" guides="1" tooltips="1" connect="1" arrows="1" fold="1" page="1" pageScale="1" pageWidth="850" pageHeight="1100" math="0" shadow="0">
      <root>
        <mxCell id="0" />
        <mxCell id="1" parent="0" />
        <mxCell id="ooEWn7n8vcibVd4_q6eP-24" value="" style="edgeStyle=orthogonalEdgeStyle;rounded=0;orthogonalLoop=1;jettySize=auto;html=1;" edge="1" parent="1" source="oCN3RFhc_HRbeUhiq2Gi-2" target="oCN3RFhc_HRbeUhiq2Gi-4">
          <mxGeometry relative="1" as="geometry" />
        </mxCell>
        <mxCell id="ooEWn7n8vcibVd4_q6eP-26" value="" style="edgeStyle=orthogonalEdgeStyle;rounded=0;orthogonalLoop=1;jettySize=auto;html=1;entryX=0;entryY=0.5;entryDx=0;entryDy=0;" edge="1" parent="1" source="oCN3RFhc_HRbeUhiq2Gi-2" target="oCN3RFhc_HRbeUhiq2Gi-3">
          <mxGeometry relative="1" as="geometry">
            <mxPoint x="100" y="330" as="targetPoint" />
          </mxGeometry>
        </mxCell>
        <mxCell id="oCN3RFhc_HRbeUhiq2Gi-2" value="" style="shape=actor;whiteSpace=wrap;html=1;" parent="1" vertex="1">
          <mxGeometry x="80" y="190" width="40" height="60" as="geometry" />
        </mxCell>
        <mxCell id="ooEWn7n8vcibVd4_q6eP-7" value="" style="edgeStyle=orthogonalEdgeStyle;rounded=0;orthogonalLoop=1;jettySize=auto;html=1;" edge="1" parent="1" source="oCN3RFhc_HRbeUhiq2Gi-3" target="ooEWn7n8vcibVd4_q6eP-3">
          <mxGeometry relative="1" as="geometry" />
        </mxCell>
        <mxCell id="ooEWn7n8vcibVd4_q6eP-9" value="" style="edgeStyle=orthogonalEdgeStyle;rounded=0;orthogonalLoop=1;jettySize=auto;html=1;entryX=0;entryY=0.5;entryDx=0;entryDy=0;" edge="1" parent="1" source="oCN3RFhc_HRbeUhiq2Gi-3" target="ooEWn7n8vcibVd4_q6eP-4">
          <mxGeometry relative="1" as="geometry">
            <mxPoint x="260" y="400" as="targetPoint" />
          </mxGeometry>
        </mxCell>
        <mxCell id="ooEWn7n8vcibVd4_q6eP-11" value="" style="edgeStyle=orthogonalEdgeStyle;rounded=0;orthogonalLoop=1;jettySize=auto;html=1;entryX=0;entryY=0.5;entryDx=0;entryDy=0;" edge="1" parent="1" source="oCN3RFhc_HRbeUhiq2Gi-3" target="ooEWn7n8vcibVd4_q6eP-6">
          <mxGeometry relative="1" as="geometry">
            <mxPoint x="260" y="400" as="targetPoint" />
          </mxGeometry>
        </mxCell>
        <mxCell id="ooEWn7n8vcibVd4_q6eP-13" value="" style="edgeStyle=orthogonalEdgeStyle;rounded=0;orthogonalLoop=1;jettySize=auto;html=1;entryX=0;entryY=0.5;entryDx=0;entryDy=0;" edge="1" parent="1" source="oCN3RFhc_HRbeUhiq2Gi-3" target="ooEWn7n8vcibVd4_q6eP-5">
          <mxGeometry relative="1" as="geometry">
            <mxPoint x="260" y="400" as="targetPoint" />
          </mxGeometry>
        </mxCell>
        <mxCell id="oCN3RFhc_HRbeUhiq2Gi-3" value="&lt;font style=&quot;font-size: 18px;&quot;&gt;MedGuide&lt;/font&gt;" style="rounded=0;whiteSpace=wrap;html=1;" parent="1" vertex="1">
          <mxGeometry x="200" y="260" width="120" height="60" as="geometry" />
        </mxCell>
        <mxCell id="ooEWn7n8vcibVd4_q6eP-22" value="" style="edgeStyle=orthogonalEdgeStyle;rounded=0;orthogonalLoop=1;jettySize=auto;html=1;" edge="1" parent="1" source="oCN3RFhc_HRbeUhiq2Gi-4" target="ooEWn7n8vcibVd4_q6eP-1">
          <mxGeometry relative="1" as="geometry" />
        </mxCell>
        <mxCell id="oCN3RFhc_HRbeUhiq2Gi-4" value="&lt;font style=&quot;font-size: 18px;&quot;&gt;ChatApp&lt;/font&gt;" style="rounded=0;whiteSpace=wrap;html=1;" parent="1" vertex="1">
          <mxGeometry x="200" y="130" width="120" height="60" as="geometry" />
        </mxCell>
        <mxCell id="ooEWn7n8vcibVd4_q6eP-23" value="" style="edgeStyle=orthogonalEdgeStyle;rounded=0;orthogonalLoop=1;jettySize=auto;html=1;" edge="1" parent="1" source="ooEWn7n8vcibVd4_q6eP-1" target="ooEWn7n8vcibVd4_q6eP-2">
          <mxGeometry relative="1" as="geometry" />
        </mxCell>
        <mxCell id="ooEWn7n8vcibVd4_q6eP-1" value="Upload Documents&amp;nbsp;" style="rounded=0;whiteSpace=wrap;html=1;" vertex="1" parent="1">
          <mxGeometry x="370" y="130" width="120" height="60" as="geometry" />
        </mxCell>
        <mxCell id="ooEWn7n8vcibVd4_q6eP-2" value="Ask Queries&amp;nbsp;" style="rounded=0;whiteSpace=wrap;html=1;" vertex="1" parent="1">
          <mxGeometry x="570" y="130" width="120" height="60" as="geometry" />
        </mxCell>
        <mxCell id="ooEWn7n8vcibVd4_q6eP-3" value="Home" style="rounded=0;whiteSpace=wrap;html=1;" vertex="1" parent="1">
          <mxGeometry x="370" y="260" width="120" height="60" as="geometry" />
        </mxCell>
        <mxCell id="ooEWn7n8vcibVd4_q6eP-15" value="" style="edgeStyle=orthogonalEdgeStyle;rounded=0;orthogonalLoop=1;jettySize=auto;html=1;" edge="1" parent="1" source="ooEWn7n8vcibVd4_q6eP-4" target="ooEWn7n8vcibVd4_q6eP-14">
          <mxGeometry relative="1" as="geometry" />
        </mxCell>
        <mxCell id="ooEWn7n8vcibVd4_q6eP-4" value="User Info&lt;br&gt;" style="rounded=0;whiteSpace=wrap;html=1;" vertex="1" parent="1">
          <mxGeometry x="370" y="340" width="120" height="60" as="geometry" />
        </mxCell>
        <mxCell id="ooEWn7n8vcibVd4_q6eP-5" value="Review / Feedback" style="rounded=0;whiteSpace=wrap;html=1;" vertex="1" parent="1">
          <mxGeometry x="370" y="500" width="120" height="60" as="geometry" />
        </mxCell>
        <mxCell id="ooEWn7n8vcibVd4_q6eP-17" value="" style="edgeStyle=orthogonalEdgeStyle;rounded=0;orthogonalLoop=1;jettySize=auto;html=1;" edge="1" parent="1" source="ooEWn7n8vcibVd4_q6eP-6" target="ooEWn7n8vcibVd4_q6eP-16">
          <mxGeometry relative="1" as="geometry" />
        </mxCell>
        <mxCell id="ooEWn7n8vcibVd4_q6eP-6" value="Xray Upload" style="rounded=0;whiteSpace=wrap;html=1;" vertex="1" parent="1">
          <mxGeometry x="370" y="420" width="120" height="60" as="geometry" />
        </mxCell>
        <mxCell id="ooEWn7n8vcibVd4_q6eP-14" value="Add Information" style="whiteSpace=wrap;html=1;rounded=0;" vertex="1" parent="1">
          <mxGeometry x="570" y="340" width="120" height="60" as="geometry" />
        </mxCell>
        <mxCell id="ooEWn7n8vcibVd4_q6eP-19" value="" style="edgeStyle=orthogonalEdgeStyle;rounded=0;orthogonalLoop=1;jettySize=auto;html=1;" edge="1" parent="1" source="ooEWn7n8vcibVd4_q6eP-16" target="ooEWn7n8vcibVd4_q6eP-18">
          <mxGeometry relative="1" as="geometry" />
        </mxCell>
        <mxCell id="ooEWn7n8vcibVd4_q6eP-16" value="upload image" style="whiteSpace=wrap;html=1;rounded=0;" vertex="1" parent="1">
          <mxGeometry x="570" y="420" width="120" height="60" as="geometry" />
        </mxCell>
        <mxCell id="ooEWn7n8vcibVd4_q6eP-18" value="Prediction" style="whiteSpace=wrap;html=1;rounded=0;" vertex="1" parent="1">
          <mxGeometry x="570" y="510" width="120" height="60" as="geometry" />
        </mxCell>
      </root>
    </mxGraphModel>
  </diagram>
</mxfile>
